<svg width="11" height="11" viewBox="0 0 11 11" fill="none" xmlns="http://www.w3.org/2000/svg">
<path d="M0.359994 1.04396L0.839994 0.395956C1.09599 0.483955 1.36799 0.595955 1.65599 0.731956C1.94399 0.859956 2.21599 0.991956 2.47199 1.12796C2.73599 1.26396 2.95599 1.39596 3.13199 1.52396L2.62799 2.25596C2.45999 2.12796 2.24799 1.99196 1.99199 1.84796C1.73599 1.69596 1.46399 1.55196 1.17599 1.41596C0.887994 1.27196 0.615994 1.14796 0.359994 1.04396ZM5.01599 -4.43459e-05L5.89199 0.227956C5.73999 0.659956 5.55999 1.08396 5.35199 1.49996C5.14399 1.91596 4.91599 2.30396 4.66799 2.66396C4.41999 3.02396 4.16399 3.33996 3.89999 3.61196C3.85199 3.55596 3.77999 3.49596 3.68399 3.43196C3.59599 3.35996 3.50399 3.29196 3.40799 3.22796C3.31999 3.15596 3.23999 3.09996 3.16799 3.05996C3.55999 2.69196 3.91599 2.23996 4.23599 1.70396C4.56399 1.15996 4.82399 0.591956 5.01599 -4.43459e-05ZM5.00399 1.27196H10.08V2.06396H4.61999L5.00399 1.27196ZM9.75599 1.27196H9.89999L10.068 1.23596L10.716 1.42796C10.604 1.82796 10.464 2.24396 10.296 2.67596C10.128 3.10796 9.96399 3.47196 9.80399 3.76796L8.99999 3.56396C9.14399 3.29196 9.28399 2.95596 9.41999 2.55596C9.56399 2.15596 9.67599 1.77996 9.75599 1.42796V1.27196ZM0.0239936 9.89996H10.956V10.74H0.0239936V9.89996ZM1.43999 6.73196H9.58799V10.296H8.71199V7.48796H7.10399V10.296H6.27599V7.48796H4.69199V10.296H3.85199V7.48796H2.27999V10.296H1.43999V6.73196ZM6.63599 1.58396H7.55999C7.47999 2.17596 7.36399 2.73196 7.21199 3.25196C7.05999 3.77196 6.83199 4.24396 6.52799 4.66796C6.23199 5.09196 5.82799 5.46796 5.31599 5.79596C4.80399 6.12396 4.15199 6.39996 3.35999 6.62396C3.31999 6.51196 3.24799 6.37996 3.14399 6.22796C3.04799 6.07596 2.95199 5.95596 2.85599 5.86796C3.59199 5.68396 4.19199 5.45196 4.65599 5.17196C5.11999 4.89196 5.48399 4.57196 5.74799 4.21196C6.01999 3.84396 6.21999 3.43996 6.34799 2.99996C6.47599 2.55996 6.57199 2.08796 6.63599 1.58396ZM7.30799 2.41196C7.52399 3.33996 7.91999 4.08796 8.49599 4.65596C9.07199 5.21596 9.88799 5.59196 10.944 5.78396C10.888 5.83196 10.824 5.90396 10.752 5.99996C10.688 6.08796 10.624 6.17996 10.56 6.27596C10.504 6.36396 10.456 6.44796 10.416 6.52796C9.67999 6.35996 9.05599 6.09996 8.54399 5.74796C8.03999 5.39596 7.63199 4.95196 7.31999 4.41596C7.00799 3.87196 6.76799 3.23196 6.59999 2.49596L7.30799 2.41196ZM-6.4522e-06 5.48396C0.399994 5.25996 0.875994 4.97996 1.42799 4.64396C1.98799 4.29996 2.54799 3.94796 3.10799 3.58796L3.39599 4.35596C2.88399 4.69996 2.36399 5.04396 1.83599 5.38796C1.31599 5.73196 0.835994 6.04396 0.395994 6.32396L-6.4522e-06 5.48396Z" fill="#F4F4F5"/>
</svg>
